<svg xmlns="http://www.w3.org/2000/svg" xmlns:xlink="http://www.w3.org/1999/xlink" preserveAspectRatio="xMidYMid" width="184.469" height="21" viewBox="0 0 184.469 21">
  <defs>
    <style>
      .cls-1 {
        fill: #212121;
        fill-rule: evenodd;
      }
    </style>
  </defs>
  <path d="M184.462,18.855 L178.174,18.855 L176.158,14.487 L174.070,14.487 L174.070,18.855 L168.501,18.855 L168.501,2.030 L176.638,2.030 C181.198,2.030 183.814,4.214 183.814,8.055 C183.814,10.503 182.878,12.327 181.150,13.383 L184.462,18.855 ZM176.638,6.254 L174.070,6.254 L174.070,10.263 L176.638,10.263 C177.838,10.263 178.534,9.518 178.534,8.222 C178.534,6.974 177.838,6.254 176.638,6.254 ZM152.902,19.095 C147.550,19.095 143.661,15.447 143.661,10.430 C143.661,5.438 147.550,1.862 152.902,1.862 C158.255,1.862 162.143,5.462 162.143,10.430 C162.143,15.423 158.255,19.095 152.902,19.095 ZM152.974,6.494 C151.030,6.494 149.374,8.150 149.374,10.455 C149.374,12.758 151.054,14.463 152.974,14.463 C154.894,14.463 156.430,12.758 156.430,10.455 C156.430,8.150 154.894,6.494 152.974,6.494 ZM131.734,2.030 L137.302,2.030 L137.302,18.855 L131.734,18.855 L131.734,2.030 ZM119.207,18.855 L117.191,14.487 L115.102,14.487 L115.102,18.855 L109.534,18.855 L109.534,2.030 L117.671,2.030 C122.231,2.030 124.847,4.214 124.847,8.055 C124.847,10.503 123.911,12.327 122.183,13.383 L125.495,18.855 L119.207,18.855 ZM117.671,6.254 L115.102,6.254 L115.102,10.263 L117.671,10.263 C118.871,10.263 119.567,9.518 119.567,8.222 C119.567,6.974 118.871,6.254 117.671,6.254 ZM88.174,2.030 L102.407,2.030 L102.407,6.254 L93.743,6.254 L93.743,8.318 L101.615,8.318 L101.615,12.543 L93.743,12.543 L93.743,14.631 L102.624,14.631 L102.624,18.855 L88.174,18.855 L88.174,2.030 ZM77.255,18.855 L71.687,18.855 L71.687,6.422 L66.910,6.422 L66.910,2.030 L82.056,2.030 L82.056,6.422 L77.255,6.422 L77.255,18.855 ZM49.511,10.263 L49.511,18.855 L44.447,18.855 L44.447,2.030 L49.103,2.030 L55.752,10.670 L55.752,2.030 L60.792,2.030 L60.792,18.855 L56.136,18.855 L49.511,10.263 ZM31.679,2.030 L37.248,2.030 L37.248,18.855 L31.679,18.855 L31.679,2.030 ZM11.813,11.812 L21.000,11.812 L21.000,21.000 L11.813,21.000 L11.813,11.812 ZM11.813,-0.000 L21.000,-0.000 L21.000,9.187 L11.813,9.187 L11.813,-0.000 ZM-0.000,11.812 L9.187,11.812 L9.187,21.000 L-0.000,21.000 L-0.000,11.812 ZM-0.000,-0.000 L9.187,-0.000 L9.187,9.187 L-0.000,9.187 L-0.000,-0.000 Z" class="cls-1"/>
</svg>
