<svg xmlns="http://www.w3.org/2000/svg" xmlns:xlink="http://www.w3.org/1999/xlink" preserveAspectRatio="xMidYMid" width="21.97" height="22" viewBox="0 0 21.97 22">
  <defs>
    <style>
      .cls-1 {
        fill: #000;
        fill-rule: evenodd;
      }
    </style>
  </defs>
  <path d="M8.991,0.000 C7.772,0.000 6.600,0.242 5.475,0.726 C4.365,1.195 3.413,1.828 2.616,2.625 C1.819,3.438 1.178,4.398 0.694,5.508 C0.225,6.617 -0.009,7.781 -0.009,9.000 C-0.009,10.219 0.225,11.383 0.694,12.492 C1.178,13.602 1.819,14.563 2.616,15.375 C3.413,16.172 4.365,16.813 5.475,17.297 C6.600,17.766 7.772,18.000 8.991,18.000 C10.038,18.000 11.038,17.828 11.991,17.484 C12.944,17.141 13.811,16.656 14.592,16.031 L20.264,21.703 C20.467,21.906 20.709,22.008 20.991,22.008 C21.272,22.008 21.506,21.906 21.694,21.703 C21.881,21.516 21.975,21.281 21.975,21.000 C21.975,20.719 21.881,20.484 21.694,20.297 L16.022,14.625 C16.647,13.844 17.131,12.969 17.475,12.000 C17.819,11.047 17.991,10.047 17.991,9.000 C17.991,7.781 17.749,6.617 17.264,5.508 C16.795,4.398 16.155,3.438 15.342,2.625 C14.545,1.828 13.592,1.195 12.483,0.726 C11.373,0.242 10.210,0.000 8.991,0.000 L8.991,0.000 ZM8.991,1.992 C9.928,1.992 10.834,2.180 11.710,2.555 C12.569,2.930 13.311,3.430 13.936,4.055 C14.561,4.680 15.061,5.422 15.436,6.281 C15.795,7.140 15.975,8.047 15.975,9.000 C15.975,9.953 15.795,10.859 15.436,11.719 C15.061,12.578 14.561,13.321 13.936,13.945 C13.311,14.570 12.569,15.070 11.710,15.446 C10.834,15.820 9.928,16.008 8.991,16.008 C8.038,16.008 7.131,15.820 6.272,15.446 C5.397,15.070 4.647,14.570 4.022,13.945 C3.397,13.321 2.905,12.578 2.546,11.719 C2.170,10.859 1.983,9.953 1.983,9.000 C1.983,8.047 2.170,7.140 2.546,6.281 C2.905,5.422 3.397,4.680 4.022,4.055 C4.647,3.430 5.397,2.930 6.272,2.555 C7.131,2.180 8.038,1.992 8.991,1.992 L8.991,1.992 Z" class="cls-1"/>
</svg>
